first trial
nRows=26
nColumns=38

# SIMM Motion File Header:
name Sujet_03_velo_100.mvnx
datacolumns 38
datarows 26
otherdata 1
range 7.8830 8.3000
endheader
time pelvis_tilt  pelvis_list  pelvis_rotation  pelvis_tx  pelvis_ty  pelvis_tz  hip_flexion_r  hip_adduction_r  hip_rotation_r  knee_angle_r  ankle_angle_r  subtalar_angle_r  mtp_angle_r  hip_flexion_l  hip_adduction_l  hip_rotation_l  knee_angle_l  ankle_angle_l  subtalar_angle_l  mtp_angle_l  lumbar_extension  lumbar_bending  lumbar_rotation  arm_flex_r  arm_add_r  arm_rot_r  elbow_flex_r  pro_sup_r  wrist_flex_r  wrist_dev_r  arm_flex_l  arm_add_l  arm_rot_l  elbow_flex_l  pro_sup_l  wrist_flex_l  wrist_dev_l
7.8830	-22.7012	-1.1559	-86.8024	0.0000	1.2500	-0.0000	58.3689	-1.4371	-6.1519	72.9712	-0.0787	1.2755	-0.0000	82.6292	-8.0608	-3.2159	80.0644	9.2599	-7.6760	0.0000	-13.5952	-0.5548	-1.1974	69.9976	9.7046	14.0934	4.3730	63.2762	-25.0572	-12.0069	74.9204	9.1878	13.8929	1.8207	65.6061	-28.1878	-15.5836	
7.9000	-22.6620	-1.6689	-87.1410	0.0000	1.2500	-0.0000	61.2544	-1.6608	-5.8028	78.9000	0.2782	1.7352	-0.0000	79.1644	-7.8729	-4.2737	73.9177	8.0260	-6.8737	0.0000	-13.5779	-0.3122	-1.1964	70.2792	9.9937	14.0160	4.1468	63.5757	-25.0190	-11.9717	74.5867	9.0700	13.8934	1.8402	65.4074	-28.1495	-15.5624	
7.9160	-22.6009	-2.1853	-87.5896	0.0000	1.2500	-0.0000	64.3890	-1.7973	-5.7869	84.7855	0.5096	2.0630	0.0000	75.2437	-7.6950	-5.3161	67.5513	6.6731	-6.1570	0.0000	-13.5312	-0.0970	-1.1842	70.4057	10.3104	14.2097	4.0023	63.6930	-25.0728	-11.9609	74.1238	8.8859	13.8550	1.9341	65.2344	-28.0745	-15.5212	
7.9330	-22.5263	-2.7180	-88.1314	0.0000	1.2500	-0.0000	67.7511	-1.8906	-6.0014	90.5795	0.7578	2.1748	-0.0000	70.9532	-7.5008	-6.3402	61.1027	5.2113	-5.4885	-0.0000	-13.4655	0.1013	-1.1531	70.4490	10.6383	14.5280	3.9057	63.7388	-25.1835	-11.9631	73.5694	8.6600	13.7837	2.0900	65.0794	-27.9798	-15.4687	
7.9500	-22.4787	-3.1840	-88.7541	0.0000	1.2500	-0.0000	71.0960	-1.9432	-6.3186	95.6653	1.7083	1.3885	0.0000	66.8970	-7.3261	-6.8432	55.5318	3.7677	-4.9685	-0.0000	-13.4080	0.2309	-1.0794	70.5251	10.8996	14.6507	3.8413	63.9212	-25.3158	-11.9461	73.0901	8.4565	13.5753	2.3086	65.0341	-27.8871	-15.4189	
7.9660	-22.4683	-3.5215	-89.4966	0.0000	1.2500	-0.0000	74.4401	-1.9745	-6.7719	99.9724	3.7731	-0.7648	0.0000	63.1326	-7.2465	-6.5162	51.0745	2.2721	-4.6456	0.0000	-13.3665	0.2487	-0.9500	70.6917	11.0844	14.4004	3.8051	64.3642	-25.4535	-11.8807	72.7495	8.2774	13.0790	2.6420	65.2172	-27.7975	-15.3727	
7.9830	-22.4859	-3.7939	89.6792	0.0000	1.2500	-0.0000	77.7626	-1.9619	-7.3426	103.5727	6.5400	-3.7887	0.0000	59.5770	-7.2810	-5.6868	47.4909	0.7931	-4.4924	0.0000	-13.3311	0.1974	-0.7773	70.8938	11.2014	13.9551	3.7960	64.9438	-25.6127	-11.7962	72.4817	8.1221	12.4461	3.0364	65.5084	-27.7091	-15.3288	
8.0000	-22.5438	-4.1073	88.8995	0.0000	1.2500	-0.0000	80.7712	-1.8197	-7.8133	106.0755	9.4481	-6.9291	0.0000	56.6232	-7.4078	-4.7910	45.0506	-0.3354	-4.4974	0.0000	-13.3016	0.1527	-0.5750	71.0795	11.2005	13.5278	3.8027	65.4963	-25.8064	-11.7475	72.2617	8.0488	12.0251	3.3379	65.6433	-27.6399	-15.2984	
8.0160	-22.6668	-4.5321	88.1758	0.0000	1.2500	-0.0000	83.4808	-1.4595	-8.1680	107.3324	12.5570	-10.2739	-0.0000	54.3893	-7.6159	-3.9337	43.8478	-0.9826	-4.8235	0.0000	-13.2723	0.1408	-0.3281	71.2381	11.0249	13.1759	3.8110	66.0024	-26.0766	-11.7690	72.0563	8.1105	12.0004	3.4842	65.4667	-27.5974	-15.2869	
8.0330	-22.8286	-5.0005	87.4948	0.0000	1.2500	-0.0000	85.8851	-0.9626	-8.4257	107.4883	15.7233	-13.6751	-0.0000	52.7610	-7.9169	-2.9942	43.7779	-1.2805	-5.3063	-0.0000	-13.2488	0.1344	-0.0518	71.3793	10.7315	12.8425	3.8351	66.4822	-26.3821	-11.8271	71.9021	8.2515	12.1884	3.5390	65.1357	-27.5746	-15.2890	
8.0500	-22.9652	-5.4098	86.9489	0.0000	1.2500	-0.0000	87.6656	-0.4757	-8.3904	106.5842	18.1632	-16.1453	-0.0000	51.7960	-8.2846	-2.0483	44.8404	-1.2931	-5.4423	0.0000	-13.2489	0.1292	0.1953	71.4822	10.4408	12.5696	3.9127	66.8297	-26.6108	-11.8750	71.8803	8.3652	12.3848	3.5413	64.8556	-27.5679	-15.3005	
8.0660	-23.0676	-5.7811	86.5791	0.0000	1.2500	-0.0000	88.7739	-0.0202	-7.7084	104.5174	19.7071	-17.4616	-0.0000	51.5783	-8.7288	-1.0617	47.1924	-0.9114	-4.9477	-0.0000	-13.2903	0.1506	0.4062	71.5327	10.1592	12.3424	4.0884	67.0236	-26.7120	-11.8975	72.0818	8.4258	12.5251	3.4788	64.6922	-27.5846	-15.3311	
8.0830	-23.1487	-6.0915	86.3461	0.0000	1.2500	-0.0000	89.2557	0.4477	-6.6934	101.3850	20.6521	-18.0055	0.0000	52.0382	-9.2100	-0.0344	50.6836	-0.2485	-4.1099	0.0000	-13.3553	0.1730	0.5882	71.5448	9.8803	12.1749	4.3229	67.0839	-26.7357	-11.9091	72.4151	8.4588	12.6731	3.3643	64.5795	-27.6173	-15.3709	
8.1000	-23.1816	-6.1703	86.2219	0.0000	1.2500	-0.0000	88.9340	0.8739	-6.1321	97.5406	21.0083	-17.7763	0.0000	53.0026	-9.6225	0.9051	54.8651	0.2952	-3.2866	0.0000	-13.4090	0.1169	0.7033	71.5414	9.7040	12.1532	4.5305	66.9662	-26.7199	-11.9063	72.6873	8.4370	12.8161	3.2763	64.5257	-27.6402	-15.3855	
8.1160	-23.1463	-5.8770	86.2023	0.0000	1.2500	-0.0000	87.6816	1.2572	-6.4914	93.0189	20.7862	-16.5275	-0.0000	54.4880	-9.9030	1.7599	59.8110	0.5490	-2.5357	0.0000	-13.4427	-0.0800	0.7249	71.5565	9.6975	12.3100	4.6852	66.6280	-26.6715	-11.8790	72.8267	8.3255	12.9626	3.2518	64.5285	-27.6361	-15.3507	
8.1330	-23.0631	-5.3520	86.2915	0.0000	1.2500	-0.0000	85.6316	1.6039	-7.2914	87.8354	20.0239	-14.5052	0.0000	56.4788	-10.1059	2.5179	65.4987	0.6787	-1.7954	-0.0000	-13.4660	-0.3546	0.6795	71.5569	9.7930	12.6134	4.8119	66.1127	-26.5836	-11.8375	72.9059	8.1607	13.1046	3.2540	64.5902	-27.6224	-15.2907	
8.1500	-22.9650	-4.8469	86.4753	0.0000	1.2500	-0.0000	82.9996	1.8599	-7.9069	82.2816	18.7208	-12.3816	0.0000	58.7466	-10.3182	3.0241	71.3288	0.7846	-1.2285	0.0000	-13.4713	-0.5980	0.6089	71.4654	9.8885	13.0532	4.9000	65.5047	-26.4724	-11.8087	72.9481	8.0218	13.2044	3.2510	64.7254	-27.6251	-15.2436	
8.1660	-22.8538	-4.4410	86.7432	0.0000	1.2500	-0.0000	79.6890	1.9836	-8.1314	76.1954	16.7213	-10.2165	-0.0000	61.2554	-10.6151	3.2254	77.2392	0.7712	-0.7581	-0.0000	-13.4441	-0.7817	0.5260	71.2016	9.9614	13.7894	4.9464	64.6867	-26.3321	-11.8090	72.9265	7.9170	13.2249	3.2337	64.9891	-27.6543	-15.2292	
8.1830	-22.7264	-4.0554	87.1053	0.0000	1.2500	-0.0000	75.7945	1.9983	-8.2026	69.7120	14.1346	-7.8893	-0.0000	64.0348	-10.9421	3.1752	83.2516	0.7211	-0.4238	-0.0000	-13.3990	-0.9350	0.4183	70.8459	10.0353	14.6624	4.9467	63.7758	-26.1686	-11.8222	72.8674	7.8369	13.2028	3.2091	65.3259	-27.6999	-15.2279	
8.2000	-22.6088	-3.7036	87.5815	0.0000	1.2500	-0.0000	71.8129	1.9329	-8.1692	63.5608	11.3307	-5.8087	0.0000	66.9513	-11.1943	2.8824	88.8570	1.0229	-0.5824	0.0000	-13.3709	-1.0352	0.2888	70.5626	10.0759	15.1823	4.8981	63.2067	-26.0168	-11.8265	72.8715	7.8350	13.2104	3.1716	65.5865	-27.7580	-15.2182	
8.2160	-22.5050	-3.4070	88.2124	0.0000	1.2500	-0.0000	67.7539	1.7831	-8.0047	57.7623	8.1868	-4.0587	0.0000	70.0360	-11.3636	2.2332	94.0321	1.8491	-1.5175	-0.0000	-13.3727	-1.0582	0.1302	70.4231	10.0567	15.0265	4.7895	63.2818	-25.8912	-11.8100	72.9677	7.9673	13.2630	3.1249	65.7237	-27.8246	-15.1855	
8.2330	-22.4102	-3.1445	88.9577	0.0000	1.2500	-0.0000	63.6053	1.5603	-7.7715	52.3029	4.8079	-2.5730	0.0000	73.2421	-11.4886	1.3118	98.7450	3.0594	-2.9709	0.0000	-13.3907	-1.0277	-0.0508	70.3552	10.0033	14.5174	4.6423	63.6982	-25.7772	-11.7845	73.1256	8.1790	13.3445	3.0671	65.7855	-27.9034	-15.1445	
8.2500	-22.3380	-2.8639	89.7152	0.0000	1.2500	-0.0000	59.8325	1.3284	-7.6251	47.8648	1.9128	-1.5415	-0.0000	76.3269	-11.5136	0.4197	102.5218	4.5791	-4.5083	0.0000	-13.4198	-0.9919	-0.2313	70.3091	9.9595	14.1323	4.5088	63.9826	-25.6666	-11.7639	73.3578	8.3588	13.4802	2.9860	65.7667	-28.0020	-15.1179	
8.2660	-22.2998	-2.5499	-89.4988	0.0000	1.2500	-0.0000	56.5218	1.1120	-7.5366	44.6341	-0.3386	-1.1119	0.0000	79.3163	-11.3864	-0.3959	105.2742	6.5417	-5.9768	0.0000	-13.4631	-0.9515	-0.4067	70.2761	9.9443	14.0605	4.3848	63.9456	-25.5455	-11.7577	73.7079	8.5332	13.7047	2.8502	65.6452	-28.1332	-15.1225	
8.2830	-22.2830	-2.2169	-88.6996	0.0000	1.2500	-0.0000	53.5868	0.8952	-7.5197	42.4252	-2.0969	-1.1223	0.0000	82.1855	-11.1521	-1.2032	107.1337	8.7828	-7.5028	0.0000	-13.5171	-0.9049	-0.5814	70.2656	9.9386	14.1125	4.2716	63.7755	-25.4278	-11.7563	74.1333	8.6753	13.9825	2.6930	65.4438	-28.2848	-15.1421	
8.3000	-22.2661	-1.8566	-88.0361	0.0000	1.2500	-0.0000	51.2391	0.6820	-7.7618	41.3718	-3.1018	-1.3150	-0.0000	84.6326	-10.8718	-1.8448	107.9755	10.7826	-9.0952	-0.0000	-13.5690	-0.8972	-0.7452	70.2547	9.9299	14.1973	4.2288	63.5653	-25.3475	-11.7444	74.5183	8.5940	14.2355	2.5986	65.2245	-28.4266	-15.1506	
